# .PCD v0.7 - Point Cloud Data file format
VERSION 0.7
FIELDS x y z
SIZE 4 4 4
TYPE F F F
COUNT 1 1 1
WIDTH 31
HEIGHT 1
VIEWPOINT 0 0 0 1 0 0 0
POINTS 31
DATA ascii
-3.0 -3.0 0.0
-2.0 -3.0 0.0
-1.0 -3.0 0.0
0.0 -3.0 0.0
1.0 -3.0 0.0
2.0 -3.0 0.0
3.0 -3.0 0.0
-3.0 -2.0 0.0
-3.0 -1.0 0.0
-3.0 0.0 0.0
-3.0 1.0 0.0
-3.0 2.0 0.0
-3.0 3.0 0.0
-2.0 2.0 0.1
-1.0 2.0 0.2
0.0 2.0 0.3
1.0 2.0 0.2
2.0 2.0 0.1
2.0 1.0 0.0
2.0 0.0 0.0
2.0 -1.0 0.0
2.0 -2.0 0.0
1.5 1.5 0.8
1.2 1.0 0.9
0.8 0.5 1.0
0.3 0.0 1.1
-0.2 -0.5 1.0
-0.7 -1.0 0.9
-1.2 -1.5 0.8
0.5 -2.0 0.5
1.0 -2.5 0.4
